<svg width="203" height="81" viewBox="0 0 203 81" xmlns="http://www.w3.org/2000/svg"><path d="M33.585.123h-10.751c-10.559 0-19.518 8.04-19.518 23.648 0 9.364 4.339 16.268 12.069 19.674l-14.424 26.107c-.472.852 0 1.513.752 1.513h6.695c.566 0 .944-.189 1.132-.661l13.106-25.635h4.717v25.635c0 .283.283.661.657.661h5.849c.566 0 .755-.283.755-.754v-69.241c0-.663-.378-.946-1.038-.946zm-6.223 38.592h-3.962c-6.223 0-12.258-4.54-12.258-15.891 0-11.825 5.657-16.648 11.409-16.648h4.811v32.54h.001zm0 0" fill="#FF4C4C"/><path d="M69.028 23.64h-5.846c-.472 0-.755.378-.755.66v18.067h-10.846v-18.067c0-.472-.186-.66-.657-.66h-5.849c-.469 0-.752.283-.752.66v45.973c0 .472.189.755.657.755h5.943c.377 0 .657-.283.657-.755v-21.944h10.846v21.944c0 .472.283.755.755.755h5.846c.472 0 .66-.378.66-.755v-45.973c0-.377-.283-.66-.66-.66zm0 0M202.514 68.002l-.755-3.216c-.092-.283-.186-.377-.469-.377-.471 0-3.018 1.038-6.696 1.038-7.167 0-10.657-6.902-10.657-17.876 0-9.65 2.925-19.202 7.828-19.202 1.321 0 2.925.377 5.468 2.745.284.283.472.378.755.378.284 0 .566-.192.85-.664l2.547-4.16c.188-.286.282-.572.282-.855 0-.378-.378-.66-.944-.944-3.868-1.987-6.507-2.364-8.77-2.364-8.865 0-15.749 10.593-15.749 27.145 0 14.285 6.601 22.513 16.031 22.513 3.963 0 8.205-1.89 9.902-3.122.375-.283.469-.661.375-1.038zm0 0M161.532 45.015l11.315-20.715c.189-.283.093-.66-.284-.66h-5.563c-1.603 0-2.17.566-2.732 1.795l-8.49 17.69c-.469 1.041-.941 1.701-1.412 1.987v-20.812c0-.377-.189-.66-.566-.66h-6.129c-.282 0-.566.283-.566.66v46.067c0 .283.189.661.566.661h6.129c.378 0 .566-.283.566-.661v-23.743c.282.189.471.472.66.852l10.749 22.132c.566 1.135 1.415 1.418 2.642 1.418h6.034c.378 0 .471-.378.282-.661l-13.202-25.351zm0 0M107.502 65.069h-1.132c-1.415 0-1.792-.566-1.792-1.701v-39.068c0-.472-.189-.66-.566-.66h-18.858c-.472 0-.755.283-.755.66v3.405c0 11.445-.661 26.201-6.695 37.363h-2.076c-.566 0-.755.286-.755.758v13.81c0 .474.378.661.66.661h4.528c1.034 0 1.412-.755 1.412-1.418v-7.851h20.182v8.609c0 .377.28.661.657.661h4.811c.563 0 1.129-.472 1.129-1.418v-13.052c.001-.471-.282-.758-.751-.758zm-10.185 0h-13.673c4.811-8.228 6.696-17.498 7.355-28.848.189-2.459.283-5.015.283-6.622h6.035v35.47zm0 0M126.737 22.505c-10.182 0-14.71 12.863-14.71 26.862 0 14.284 6.411 22.796 15.843 22.796 4.619 0 8.675-1.795 10.748-3.122.378-.189.472-.472.378-.849l-.754-3.216c-.094-.377-.283-.566-.755-.566-.374 0-3.11 1.038-6.978 1.038-7.261 0-10.654-6.336-10.654-14.659v-2.239s3.676.441 5.846.441h13.767v-3.974c-.001-14.659-5.189-22.511-12.73-22.511zm-1.037 20.526c-2.171 0-5.563.378-5.563.378s0-1.418.189-2.933c.846-8.04 2.827-12.105 6.128-12.105 3.019 0 4.903 4.16 5.374 11.445.094 1.513.094 3.216.094 3.216h-6.223v-.001zm0 0" fill="#595959"/></svg>